<?xml version="1.0" standalone="no"?>
<!DOCTYPE svg PUBLIC "-//W3C//DTD SVG 20010904//EN"
 "http://www.w3.org/TR/2001/REC-SVG-20010904/DTD/svg10.dtd">
<svg version="1.0" xmlns="http://www.w3.org/2000/svg"
 width="742.000000pt" height="742.000000pt" viewBox="0 0 742.000000 742.000000"
 preserveAspectRatio="xMidYMid meet">
<metadata>
Created by potrace 1.11, written by Peter Selinger 2001-2013
</metadata>
<g transform="translate(0.000000,742.000000) scale(0.100000,-0.100000)"
fill="#000000" stroke="none">
<path d="M3830 7239 c0 -5 -9 -9 -20 -9 -17 0 -19 -3 -11 -19 13 -24 3 -33
-22 -19 -15 8 -22 8 -25 0 -2 -6 -9 -9 -16 -6 -9 3 -13 -5 -13 -26 0 -19 5
-30 14 -30 9 0 13 -7 11 -17 -2 -10 -10 -17 -17 -15 -8 2 -10 -4 -6 -17 7 -23
-12 -38 -28 -22 -7 7 -14 7 -23 0 -17 -14 -36 -2 -30 19 7 23 -40 47 -48 25
-3 -8 -11 -11 -18 -7 -8 5 -9 0 -6 -14 8 -28 -8 -38 -29 -20 -13 10 -17 10
-20 1 -3 -7 -10 -13 -17 -13 -6 0 -12 -12 -11 -27 0 -16 6 -28 13 -28 6 0 12
-3 12 -7 0 -5 0 -12 0 -18 0 -5 -6 -10 -14 -10 -7 0 -13 -10 -13 -23 0 -26 39
-51 55 -35 15 15 31 1 25 -22 -4 -14 -1 -20 8 -18 7 2 15 -5 17 -14 2 -13 -3
-18 -18 -18 -19 0 -20 -2 -10 -15 10 -12 9 -16 -6 -22 -10 -4 -19 -2 -21 4 -3
8 -11 8 -27 0 -29 -14 -32 -63 -3 -71 21 -5 14 -26 -9 -26 -11 0 -13 -6 -9
-19 8 -25 -15 -39 -30 -18 -10 14 -12 14 -23 -1 -9 -14 -12 -15 -21 -3 -5 8
-7 19 -5 25 2 6 -7 16 -21 23 -14 6 -25 7 -25 2 0 -5 -7 -9 -16 -9 -10 0 -14
-6 -11 -14 3 -8 -1 -20 -8 -26 -12 -10 -16 -9 -21 5 -7 17 -8 17 -20 0 -15
-21 -38 -10 -31 15 3 12 -2 20 -15 23 -21 6 -16 27 6 27 7 0 13 12 13 28 0 33
-41 61 -52 35 -4 -12 -8 -13 -20 -3 -7 6 -11 18 -8 26 3 8 -1 14 -10 14 -8 0
-18 6 -21 13 -5 10 -7 10 -12 0 -3 -7 -12 -13 -21 -13 -10 0 -12 -6 -8 -20 5
-16 2 -20 -14 -20 -12 0 -21 5 -21 11 0 6 -9 4 -22 -5 -23 -16 -32 -66 -11
-66 22 0 25 -21 4 -27 -15 -4 -20 -11 -16 -23 6 -20 -21 -36 -28 -17 -3 9 -8
9 -20 -1 -22 -19 -40 -6 -27 19 9 16 7 19 -9 19 -11 0 -22 6 -25 13 -5 10 -7
10 -12 0 -3 -7 -12 -13 -21 -13 -9 0 -12 -6 -8 -19 7 -24 -23 -38 -32 -14 -6
14 -7 14 -19 -2 -7 -9 -17 -14 -23 -11 -6 4 -9 -5 -8 -21 1 -17 10 -31 21 -36
15 -6 16 -10 6 -22 -7 -8 -16 -12 -21 -10 -4 3 -7 -7 -6 -22 2 -30 35 -56 52
-41 20 17 36 9 29 -17 -5 -20 -3 -24 10 -19 12 4 16 0 16 -16 0 -16 -4 -20
-16 -16 -12 4 -14 1 -9 -13 7 -22 -10 -37 -28 -23 -19 14 -52 -9 -51 -38 0
-14 5 -24 11 -23 19 4 24 -27 5 -35 -21 -9 -28 -64 -6 -55 7 3 17 -2 20 -11 6
-15 7 -15 19 0 14 20 38 9 31 -14 -4 -11 3 -21 19 -29 14 -6 25 -7 25 -2 0 5
7 9 16 9 10 0 14 6 11 14 -3 8 1 20 8 26 12 10 16 9 21 -4 5 -14 8 -14 21 -1
19 19 36 9 30 -17 -4 -14 -1 -18 8 -14 7 2 16 -2 19 -11 4 -9 -1 -17 -14 -20
-25 -7 -22 -42 5 -65 17 -14 21 -14 28 -2 11 19 38 -1 30 -22 -3 -9 1 -14 12
-14 10 0 15 -6 13 -17 -2 -10 -10 -17 -17 -15 -9 2 -12 -4 -8 -18 6 -23 -10
-37 -25 -22 -18 18 -56 -6 -54 -34 0 -13 7 -24 14 -24 6 0 12 -4 12 -10 0 -5
0 -13 0 -17 0 -5 -6 -8 -12 -8 -8 0 -12 -10 -10 -23 3 -24 -23 -32 -31 -9 -3
9 -8 9 -21 -2 -12 -10 -20 -11 -27 -4 -8 8 -7 13 1 18 7 5 2 12 -15 21 -31 16
-68 3 -59 -20 7 -18 -13 -31 -29 -18 -18 13 -52 -9 -53 -35 0 -14 7 -25 17
-28 20 -7 15 -35 -5 -35 -22 0 -12 -44 13 -58 18 -11 25 -11 31 -2 12 19 32 1
25 -21 -4 -13 -2 -19 9 -19 9 0 16 -7 16 -15 0 -8 -7 -15 -16 -15 -10 0 -13
-6 -9 -19 7 -24 -23 -38 -32 -14 -6 14 -7 14 -19 -1 -7 -10 -16 -17 -20 -17
-4 1 -8 -10 -9 -23 0 -17 6 -27 20 -31 20 -5 20 -5 0 -21 -11 -8 -19 -21 -17
-29 4 -19 -19 -30 -29 -14 -6 11 -11 11 -21 1 -19 -19 -28 -14 -28 13 0 16 -6
25 -15 25 -8 0 -15 5 -15 10 0 6 -11 3 -24 -6 -14 -8 -23 -21 -20 -29 7 -18
-14 -29 -30 -16 -9 7 -16 7 -23 0 -16 -16 -35 -1 -28 22 4 13 2 19 -6 17 -7
-2 -15 5 -17 15 -2 10 2 17 12 17 10 0 14 8 12 25 -2 14 -6 25 -10 25 -4 -1
-13 6 -20 16 -12 15 -13 15 -19 0 -10 -25 -27 -19 -27 9 0 16 -6 25 -15 25 -8
0 -15 4 -15 9 0 5 -11 4 -25 -2 -16 -8 -23 -18 -20 -28 7 -22 -22 -32 -30 -11
-6 16 -7 16 -16 -1 -6 -9 -14 -15 -18 -12 -5 2 -11 -8 -13 -24 -3 -22 0 -31
14 -34 24 -7 23 -23 -1 -30 -14 -3 -18 -11 -14 -26 6 -23 -6 -28 -25 -9 -9 9
-15 9 -24 0 -19 -19 -28 -14 -28 13 0 16 -6 25 -15 25 -8 0 -15 5 -15 10 0 6
-11 3 -24 -6 -14 -8 -23 -21 -20 -29 7 -18 -16 -31 -26 -14 -7 10 -11 10 -24
0 -20 -17 -38 -5 -31 20 4 13 2 19 -9 19 -9 0 -16 7 -16 15 0 8 6 15 14 15 8
0 14 11 14 25 -1 32 -32 52 -54 35 -11 -10 -15 -9 -20 3 -3 9 -3 20 0 25 3 6
-3 12 -14 15 -25 7 -26 23 -1 30 14 3 18 11 14 26 -6 23 6 28 24 10 8 -8 16
-7 31 2 22 14 27 59 6 59 -18 0 -18 26 0 33 17 7 18 57 1 57 -8 0 -16 6 -19
13 -5 10 -7 10 -12 0 -10 -22 -37 -15 -31 7 3 13 0 20 -8 20 -8 0 -18 8 -24
18 -9 16 -10 16 -16 0 -4 -10 -13 -18 -21 -18 -7 0 -11 -6 -8 -14 7 -19 -14
-31 -30 -17 -9 7 -16 7 -23 0 -16 -16 -32 -2 -25 23 3 14 1 19 -6 14 -17 -10
-27 16 -11 28 22 17 20 51 -4 65 -15 10 -22 11 -25 2 -6 -18 -34 -13 -30 7 1
9 -1 18 -6 19 -4 1 -14 10 -21 20 -13 17 -14 17 -20 1 -4 -10 -13 -14 -22 -11
-12 5 -14 1 -9 -15 8 -23 -12 -41 -24 -22 -6 9 -12 9 -28 -1 -24 -15 -25 -55
-2 -70 13 -8 13 -11 -4 -24 -10 -7 -15 -19 -11 -24 10 -17 -26 -26 -37 -10 -7
11 -11 11 -15 2 -8 -21 -36 -16 -30 6 3 13 -3 22 -21 31 -19 8 -28 8 -30 1 -2
-6 -10 -11 -17 -11 -8 0 -11 -7 -8 -20 6 -22 -21 -29 -31 -7 -5 10 -7 10 -12
0 -3 -7 -11 -13 -18 -13 -8 0 -13 -13 -14 -30 0 -17 3 -28 8 -25 17 10 23 -18
7 -30 -23 -17 -21 -48 4 -63 15 -10 24 -11 32 -3 18 18 30 12 25 -13 -4 -18 0
-26 15 -30 21 -5 15 -26 -8 -26 -8 0 -12 -6 -9 -15 10 -25 -6 -38 -26 -20 -16
15 -18 15 -24 0 -3 -9 -10 -14 -15 -10 -5 3 -9 -8 -9 -25 1 -18 6 -30 15 -30
7 0 13 -7 13 -15 0 -8 -7 -15 -16 -15 -9 0 -14 -6 -11 -13 3 -8 1 -20 -4 -28
-8 -12 -11 -11 -22 3 -12 15 -14 15 -23 0 -14 -21 -37 -6 -31 20 4 14 1 18 -8
14 -7 -2 -16 3 -20 12 -4 10 -9 12 -13 6 -4 -6 -15 -13 -24 -17 -10 -3 -15
-12 -12 -21 7 -19 -16 -32 -27 -15 -8 12 -10 12 -18 0 -11 -18 -31 -5 -31 20
0 10 -7 19 -15 19 -21 0 -19 19 3 28 20 8 25 52 5 52 -8 0 -16 7 -20 16 -6 15
-7 15 -19 -1 -15 -20 -37 -11 -30 13 4 11 -3 21 -19 29 -14 6 -25 7 -25 2 0
-5 -9 -9 -20 -9 -13 0 -18 -5 -14 -15 9 -22 -5 -38 -22 -24 -10 8 -18 9 -27 0
-8 -6 -16 -9 -19 -6 -2 3 -5 -8 -5 -25 0 -18 6 -30 14 -30 7 0 13 -7 13 -15 0
-8 -7 -15 -16 -15 -11 0 -15 -6 -11 -20 6 -24 -12 -38 -23 -19 -7 10 -11 10
-24 0 -20 -17 -38 -4 -30 21 4 13 2 18 -4 14 -5 -3 -15 1 -22 8 -10 13 -14 12
-31 -2 -10 -9 -19 -24 -19 -34 0 -20 -26 -25 -32 -7 -3 9 -10 8 -25 -1 -23
-15 -28 -60 -6 -60 9 0 13 -7 11 -17 -2 -10 -9 -17 -15 -16 -7 2 -11 -10 -11
-27 1 -17 7 -30 14 -30 7 0 15 -6 18 -12 5 -10 7 -10 12 0 10 22 34 13 34 -13
0 -16 6 -25 15 -25 22 0 19 -21 -4 -27 -12 -3 -17 -11 -14 -23 6 -22 -15 -37
-23 -17 -4 11 -10 12 -28 4 -25 -12 -33 -67 -9 -67 7 0 13 -7 13 -15 0 -8 -6
-15 -13 -15 -8 0 -14 -12 -15 -29 -1 -33 28 -47 60 -30 15 8 18 6 18 -12 0
-32 27 -48 56 -35 15 7 22 17 19 27 -7 22 22 32 30 11 6 -16 7 -16 16 0 13 23
42 12 34 -13 -5 -13 -1 -19 10 -19 10 0 15 -6 13 -17 -2 -10 -9 -17 -15 -16
-5 1 -10 -10 -11 -25 0 -19 6 -31 23 -38 17 -8 25 -8 28 -1 2 6 11 8 21 4 14
-6 16 -10 7 -21 -9 -11 -7 -15 10 -19 23 -6 21 -32 -2 -32 -9 0 -13 -9 -11
-23 2 -15 -2 -22 -12 -22 -9 0 -16 4 -16 9 0 5 -11 4 -24 -2 -16 -8 -23 -20
-24 -39 0 -15 4 -27 11 -25 6 1 13 -6 15 -15 2 -12 -3 -18 -13 -18 -11 0 -15
-5 -11 -15 7 -19 -23 -33 -34 -15 -5 8 -9 9 -14 1 -13 -20 -39 -13 -33 9 3 13
0 20 -8 20 -7 0 -15 5 -17 11 -6 18 -54 -14 -50 -33 2 -11 -3 -18 -12 -18 -9
0 -16 4 -16 9 0 5 -11 4 -23 -2 -26 -12 -34 -67 -10 -67 7 0 13 -7 13 -15 0
-8 -6 -15 -13 -15 -8 0 -14 -12 -14 -30 0 -16 3 -28 5 -25 3 3 11 0 18 -6 9
-7 19 -7 35 1 20 11 21 10 17 -14 -4 -20 -1 -26 13 -26 11 0 19 -7 19 -15 0
-8 -7 -15 -15 -15 -8 0 -15 -8 -15 -18 0 -26 -11 -34 -28 -19 -12 9 -16 9 -19
0 -3 -7 -10 -13 -18 -13 -7 0 -12 -11 -12 -25 0 -15 5 -25 13 -25 8 0 14 -9
14 -20 0 -11 -5 -19 -12 -17 -6 1 -13 -10 -14 -25 -2 -18 2 -28 11 -28 7 0 16
-6 19 -12 5 -10 7 -10 12 0 11 23 34 13 34 -15 0 -14 3 -23 7 -20 3 4 12 2 20
-4 9 -8 17 -8 26 0 8 6 17 7 22 3 4 -4 4 3 1 15 -8 25 9 40 28 24 9 -7 16 -7
23 0 15 15 34 3 27 -16 -4 -8 1 -18 10 -21 24 -9 19 -34 -6 -34 -16 0 -19 -3
-11 -11 6 -6 9 -17 7 -23 -6 -17 36 -40 49 -27 18 18 27 13 27 -14 0 -16 6
-25 15 -25 8 0 15 -6 15 -12 1 -9 5 -8 13 3 7 9 18 14 26 11 9 -3 11 1 7 16
-8 23 12 41 24 22 11 -17 54 6 46 25 -3 8 0 17 6 21 7 5 3 10 -10 15 -27 10
-28 26 -3 34 13 4 17 12 14 25 -6 23 21 29 31 8 5 -10 7 -10 12 0 10 20 37 15
31 -7 -6 -23 41 -50 53 -31 4 7 11 12 16 12 5 1 8 9 6 20 -4 20 24 26 31 6 3
-10 7 -10 20 0 21 18 37 8 30 -18 -4 -14 0 -20 11 -20 9 0 16 -7 16 -15 0 -8
-6 -15 -14 -15 -21 0 -16 -45 7 -59 15 -10 21 -10 27 -1 11 18 33 1 27 -20 -3
-12 2 -20 15 -23 22 -6 16 -27 -7 -27 -8 0 -12 -6 -9 -15 9 -22 -5 -38 -22
-24 -10 8 -18 9 -27 0 -8 -6 -17 -8 -20 -4 -4 3 -7 -8 -7 -25 0 -22 5 -32 15
-32 8 0 15 -7 15 -15 0 -8 -6 -15 -13 -15 -9 0 -14 -12 -15 -30 0 -20 4 -30
14 -30 8 0 14 -5 14 -12 0 -9 3 -9 12 0 18 18 40 15 36 -5 -5 -25 31 -42 59
-28 15 7 21 16 17 28 -6 19 20 25 31 7 5 -8 11 -7 20 0 16 14 38 4 29 -12 -4
-6 2 -17 12 -25 18 -13 18 -15 2 -27 -21 -16 -24 -56 -4 -56 8 0 17 -6 20 -12
5 -10 7 -10 12 0 10 22 36 14 32 -10 -2 -13 2 -22 9 -21 20 4 25 -28 4 -34
-13 -3 -17 -11 -14 -24 6 -22 -16 -26 -35 -7 -9 9 -12 9 -12 0 0 -7 -7 -12
-15 -12 -10 0 -15 -10 -15 -30 0 -20 5 -30 15 -30 8 0 15 -7 15 -15 0 -8 -7
-15 -16 -15 -9 0 -14 -8 -13 -17 3 -31 0 -34 -22 -23 -15 9 -24 8 -35 0 -11
-10 -15 -9 -20 4 -4 9 -4 20 0 23 3 3 -4 11 -17 17 -28 15 -66 -1 -60 -25 3
-9 -3 -19 -11 -22 -10 -4 -16 -1 -16 9 0 13 -4 12 -25 -3 -27 -20 -34 -63 -10
-63 8 0 15 -7 15 -15 0 -8 -6 -15 -13 -15 -9 0 -14 -12 -15 -30 0 -20 4 -30
14 -30 8 0 14 -5 14 -12 0 -9 3 -9 12 0 19 19 41 15 35 -7 -3 -13 1 -21 15
-24 21 -6 20 -34 -1 -30 -6 2 -11 -8 -11 -22 0 -26 -24 -35 -34 -12 -5 10 -7
10 -12 0 -3 -7 -11 -13 -18 -13 -8 0 -13 -13 -14 -30 0 -17 3 -28 8 -25 17 11
23 -18 6 -31 -10 -7 -15 -18 -11 -23 3 -6 -1 -14 -10 -18 -10 -3 -21 0 -25 7
-5 8 -9 9 -14 1 -13 -20 -39 -13 -33 9 3 13 0 20 -8 20 -7 0 -15 5 -17 11 -6
18 -54 -14 -50 -33 4 -21 -18 -24 -36 -6 -9 9 -12 9 -12 0 0 -7 -7 -12 -16
-12 -11 0 -15 6 -11 19 3 13 -1 21 -15 24 -21 6 -20 31 0 33 23 3 24 4 13 18
-9 11 -9 16 -1 21 8 5 3 12 -12 20 -14 7 -27 8 -35 3 -15 -12 -35 -1 -31 15 2
7 -1 13 -6 14 -5 1 -12 7 -17 14 -6 10 -11 10 -22 1 -7 -7 -17 -9 -20 -5 -4 3
-7 -6 -7 -20 0 -28 -23 -38 -34 -14 -5 9 -7 9 -12 0 -3 -7 -11 -13 -19 -13
-17 0 -16 -47 1 -54 19 -7 18 -36 -2 -36 -10 0 -14 -5 -10 -15 7 -19 -23 -33
-34 -15 -5 8 -9 9 -14 1 -13 -20 -38 -13 -31 9 4 14 2 20 -8 20 -9 0 -17 5
-19 11 -6 18 -54 -14 -50 -33 2 -11 -3 -18 -12 -18 -9 0 -16 4 -16 9 0 5 -11
4 -24 -2 -17 -8 -23 -19 -22 -36 2 -14 8 -27 15 -29 20 -7 12 -32 -10 -32 -17
0 -19 -3 -10 -14 6 -7 8 -22 5 -32 -4 -11 -4 -16 1 -12 4 4 14 3 21 -3 9 -7
19 -7 35 1 20 11 21 10 17 -14 -4 -20 -1 -26 13 -26 11 0 19 -7 19 -15 0 -8
-7 -15 -15 -15 -9 0 -15 -9 -15 -25 0 -25 -25 -36 -32 -14 -3 9 -10 8 -25 -1
-23 -15 -28 -60 -7 -60 17 0 19 -27 3 -32 -17 -6 -21 -58 -4 -58 7 0 16 -6 19
-12 5 -10 7 -10 12 0 9 19 36 15 32 -5 -4 -22 42 -50 53 -32 4 6 12 8 19 4 9
-5 10 -2 6 13 -8 24 9 38 28 23 9 -7 16 -7 23 0 13 13 36 2 27 -12 -3 -6 2
-17 12 -25 17 -12 17 -15 4 -26 -9 -7 -16 -22 -17 -34 -2 -26 33 -50 51 -35
15 13 26 4 26 -21 0 -10 7 -18 15 -18 19 0 19 -19 0 -26 -8 -4 -15 -14 -15
-24 0 -25 -19 -35 -26 -15 -6 14 -8 14 -24 0 -9 -8 -19 -12 -23 -9 -3 3 -5 -8
-5 -25 1 -19 6 -31 15 -31 7 0 13 -7 13 -15 0 -8 -7 -15 -16 -15 -11 0 -13 -6
-9 -19 8 -26 -15 -39 -31 -17 -12 16 -13 16 -22 0 -12 -21 -35 -9 -28 14 4 11
-3 21 -19 29 -14 6 -25 7 -25 2 0 -5 -7 -9 -15 -9 -9 0 -15 -9 -15 -25 0 -28
-9 -31 -29 -13 -11 10 -14 10 -18 1 -3 -7 -10 -13 -18 -13 -7 0 -12 -11 -12
-25 0 -15 5 -25 13 -25 18 0 18 -29 0 -36 -17 -7 -18 -54 -1 -54 8 0 16 -6 18
-12 4 -10 8 -10 15 1 6 8 17 11 27 7 14 -5 15 -9 6 -20 -10 -11 -8 -16 8 -21
26 -8 27 -25 2 -32 -12 -3 -17 -11 -14 -23 6 -22 -15 -37 -23 -17 -4 11 -10
12 -28 4 -25 -12 -33 -67 -9 -67 7 0 13 -7 13 -15 0 -8 -6 -15 -14 -15 -22 0
-13 -48 11 -65 18 -13 22 -13 27 1 8 21 29 6 23 -17 -4 -14 0 -19 14 -19 10 0
19 -4 19 -9 0 -5 11 -4 25 2 16 8 23 18 19 29 -7 22 11 31 26 13 11 -13 14
-13 26 2 11 15 15 16 23 4 5 -8 7 -20 4 -28 -3 -7 2 -13 11 -13 9 0 16 -7 16
-15 0 -8 -6 -15 -13 -15 -9 0 -14 -12 -15 -30 0 -19 4 -30 13 -30 7 0 15 -6
18 -12 3 -9 9 -7 20 7 14 18 16 18 22 3 4 -9 5 -21 2 -25 -10 -16 37 -29 60
-17 13 6 20 14 17 17 -4 4 -1 13 6 22 11 14 14 13 26 -2 8 -11 13 -13 14 -5 0
6 9 12 21 12 15 0 19 4 15 16 -3 9 -6 22 -6 30 0 8 -7 14 -15 14 -8 0 -15 7
-15 15 0 8 9 15 20 15 13 0 18 5 14 15 -9 22 5 38 22 24 11 -9 17 -9 29 1 12
10 16 9 21 -3 3 -9 3 -21 -1 -27 -3 -6 3 -10 14 -10 12 0 21 -4 21 -9 0 -5 11
-4 24 2 13 6 22 17 19 24 -9 23 8 35 27 18 16 -14 18 -14 23 0 10 24 27 18 27
-10 0 -16 6 -25 15 -25 8 0 15 -7 15 -15 0 -8 -6 -15 -13 -15 -9 0 -14 -12
-15 -30 0 -17 3 -28 8 -25 5 3 13 -2 18 -11 6 -11 11 -13 16 -5 12 19 39 13
33 -8 -3 -13 1 -21 14 -24 25 -7 24 -23 0 -30 -14 -3 -18 -11 -14 -26 6 -23
-21 -31 -31 -8 -5 9 -7 9 -12 0 -3 -7 -11 -13 -18 -13 -8 0 -13 -13 -14 -30 0
-17 3 -28 8 -25 15 10 24 -18 9 -29 -22 -16 -20 -50 3 -65 16 -10 22 -10 28
-1 10 17 33 2 26 -16 -3 -9 2 -18 12 -21 9 -4 20 -11 24 -17 4 -6 9 -4 13 6 4
10 13 14 22 11 12 -5 14 -1 9 15 -8 24 12 41 25 21 6 -11 11 -11 20 -2 17 17
38 5 32 -18 -4 -13 0 -19 11 -19 9 0 16 -7 16 -15 0 -8 -6 -15 -14 -15 -7 0
-16 -11 -18 -25 -4 -17 -1 -25 9 -25 7 0 16 -7 20 -15 5 -14 8 -14 24 1 17 16
19 16 25 0 4 -9 4 -20 0 -23 -3 -3 4 -11 17 -17 26 -14 68 1 60 21 -8 21 7 36
23 22 10 -8 18 -9 27 0 8 6 17 8 20 5 3 -3 5 8 5 25 -1 19 -6 31 -15 31 -7 0
-13 7 -13 15 0 8 7 15 16 15 9 0 14 6 11 13 -3 8 -1 20 3 27 7 12 11 11 25 0
14 -11 18 -11 25 -1 10 17 33 4 26 -15 -3 -9 2 -18 12 -21 9 -4 20 -11 24 -17
5 -7 8 -7 8 2 0 6 8 12 19 12 14 0 17 6 13 25 -5 27 6 32 27 13 11 -10 14 -10
18 0 3 6 10 12 18 12 7 0 13 11 13 25 0 15 -6 25 -15 25 -9 0 -13 7 -11 18 2
9 9 16 15 15 7 -2 11 10 11 27 -1 17 -7 30 -14 30 -7 0 -15 6 -18 13 -5 10 -7
10 -12 0 -10 -23 -34 -14 -34 12 0 14 -5 24 -11 22 -22 -4 -21 24 0 30 17 4
19 8 10 19 -9 11 -7 15 6 20 10 4 21 1 27 -7 7 -11 11 -11 15 -1 2 6 10 12 17
12 7 0 13 13 13 30 0 18 -6 30 -14 30 -7 0 -13 7 -13 15 0 8 7 15 16 15 10 0
14 6 11 14 -3 8 1 20 8 26 12 10 16 9 21 -4 6 -16 8 -16 24 -1 19 17 34 7 25
-17 -3 -7 6 -18 20 -25 14 -6 25 -7 25 -2 0 5 9 9 19 9 15 0 18 5 14 21 -5 19
-3 21 20 15 14 -3 29 -2 32 4 12 19 27 10 23 -14 -4 -18 0 -26 14 -29 24 -7
23 -27 -1 -27 -15 0 -17 -5 -13 -27 6 -33 32 -56 46 -42 18 17 39 10 33 -11
-3 -13 0 -20 8 -20 7 0 15 -5 17 -11 3 -8 10 -8 26 2 12 8 20 19 18 25 -2 6
-1 16 3 23 6 9 11 8 20 -2 19 -24 58 0 58 35 0 17 -6 28 -14 28 -7 0 -13 7
-13 15 0 8 7 15 16 15 10 0 13 6 9 19 -7 24 23 38 32 14 6 -14 7 -14 19 2 16
21 37 10 29 -16 -4 -13 -2 -19 8 -19 9 0 18 -6 21 -12 5 -10 7 -10 12 0 3 6
15 12 26 12 16 0 18 3 9 14 -8 10 -8 16 3 25 10 8 16 9 21 1 3 -5 18 -7 32 -4
23 6 25 4 21 -14 -4 -14 0 -22 13 -25 24 -6 25 -27 1 -27 -13 0 -18 -8 -17
-28 0 -30 32 -55 52 -40 16 13 34 1 26 -17 -3 -9 1 -15 11 -15 21 0 21 -29 0
-37 -8 -3 -13 -12 -10 -19 7 -17 -11 -28 -27 -16 -18 13 -52 -9 -53 -35 0 -13
5 -23 12 -23 20 0 25 -30 6 -38 -9 -4 -17 -16 -17 -27 0 -22 35 -46 49 -34 14
12 37 -2 31 -20 -6 -22 41 -46 49 -24 3 8 11 11 18 7 8 -5 9 0 6 14 -8 28 11
40 28 18 12 -16 13 -16 22 0 12 22 35 8 29 -18 -4 -14 -1 -18 8 -14 7 2 16 -2
19 -11 4 -9 -1 -17 -14 -20 -25 -7 -22 -42 5 -64 18 -16 20 -16 32 0 11 13 14
14 22 2 5 -8 7 -20 4 -28 -3 -7 2 -13 11 -13 9 0 16 -7 16 -15 0 -8 -7 -15
-16 -15 -10 0 -14 -7 -12 -22 2 -11 -3 -23 -9 -25 -7 -3 -13 0 -13 6 0 6 -7
11 -15 11 -8 0 -15 -4 -15 -10 0 -5 -6 -10 -13 -10 -20 0 -15 -44 7 -53 15 -6
16 -10 6 -22 -7 -8 -16 -12 -22 -9 -5 3 -6 -5 -2 -20 5 -19 2 -26 -9 -26 -8 0
-17 6 -20 13 -3 9 -7 9 -20 -1 -18 -15 -39 -8 -31 11 6 18 -34 41 -50 28 -7
-6 -16 -7 -21 -3 -4 4 -4 -3 -1 -15 8 -24 -9 -40 -27 -25 -19 14 -52 -10 -54
-39 -1 -19 3 -26 14 -25 23 2 28 -23 6 -32 -21 -8 -26 -52 -6 -52 8 0 16 -7
19 -15 6 -14 8 -13 19 1 15 22 38 9 30 -17 -4 -13 -2 -19 9 -19 9 0 16 -7 16
-15 0 -8 -7 -15 -16 -15 -11 0 -13 -6 -9 -19 8 -26 -10 -35 -29 -15 -9 8 -16
11 -16 5 0 -6 -9 -11 -19 -11 -15 0 -19 -6 -18 -27 1 -16 10 -31 20 -35 22
-10 22 -24 -1 -30 -25 -7 -22 -44 6 -64 13 -8 22 -11 22 -5 0 6 9 11 21 11 16
0 19 -4 14 -20 -4 -14 -2 -20 8 -20 9 0 17 -5 19 -11 3 -8 10 -8 26 2 12 8 20
20 17 27 -2 7 3 16 12 19 10 4 19 1 21 -6 3 -9 7 -9 18 -1 16 14 37 3 30 -15
-2 -7 5 -16 17 -19 22 -6 22 -6 2 -24 -11 -9 -20 -26 -20 -37 0 -24 35 -46 52
-33 18 14 32 1 26 -25 -3 -12 -2 -19 2 -15 5 4 14 3 22 -3 9 -8 17 -8 26 0 8
6 17 7 22 3 4 -4 5 3 2 15 -6 26 8 39 26 25 19 -14 52 10 54 41 1 15 -1 25 -6
23 -4 -3 -13 -1 -20 4 -16 9 -6 30 14 30 8 0 12 6 9 14 -7 19 14 30 30 16 11
-8 15 -8 18 1 2 7 11 10 21 6 10 -4 14 -12 11 -22 -4 -9 -1 -15 9 -15 8 0 18
-6 21 -12 5 -10 7 -10 12 0 3 6 13 12 21 12 9 0 13 6 10 15 -8 20 11 29 28 15
11 -9 15 -9 15 -1 0 6 9 11 21 11 16 0 19 -4 14 -20 -5 -14 -2 -20 9 -20 9 0
16 -9 16 -20 0 -11 -5 -19 -11 -18 -6 2 -12 -8 -14 -22 -2 -19 3 -28 20 -37
17 -7 25 -7 28 0 2 6 11 8 21 4 9 -4 14 -12 11 -18 -4 -5 1 -17 11 -24 18 -13
18 -14 0 -28 -10 -8 -16 -19 -12 -25 9 -14 -13 -27 -26 -14 -6 6 -17 6 -32 -1
-29 -14 -32 -63 -3 -71 21 -5 14 -26 -8 -26 -20 0 -15 -42 7 -58 13 -10 23
-10 38 -2 20 11 25 5 21 -27 -1 -7 5 -13 13 -13 8 0 17 -6 20 -12 5 -10 7 -10
12 0 3 6 12 12 21 12 10 0 12 6 8 19 -8 26 13 37 29 16 12 -16 13 -16 19 -2 9
24 39 10 32 -14 -4 -13 -1 -19 9 -19 9 0 16 -7 16 -15 0 -8 -6 -15 -13 -15
-24 0 -16 -55 9 -67 16 -8 24 -8 27 0 2 6 11 8 22 3 14 -5 15 -10 7 -18 -8 -8
-4 -15 16 -25 17 -9 28 -11 30 -4 2 6 10 11 19 11 10 0 12 6 8 20 -7 23 13 28
33 8 9 -9 13 -8 17 5 4 9 12 14 19 11 7 -3 11 5 10 23 0 18 -7 29 -17 31 -23
5 -21 23 2 29 11 3 17 11 14 19 -8 22 6 37 23 23 11 -9 17 -9 29 1 12 10 16 9
21 -3 3 -9 3 -21 -1 -27 -3 -6 3 -10 14 -10 12 0 21 -4 21 -9 0 -5 11 -4 24 2
14 7 21 17 19 28 -6 22 24 32 32 11 6 -16 7 -16 16 0 5 9 15 15 22 12 21 -8
15 50 -5 58 -21 9 -24 28 -4 28 7 0 16 13 18 28 3 22 -1 31 -19 39 -13 7 -25
7 -29 2 -11 -18 -36 -10 -29 10 4 13 0 20 -15 24 -23 6 -17 37 7 37 9 0 13 6
10 15 -8 18 10 30 26 17 18 -13 52 9 53 35 0 14 -7 25 -18 29 -23 7 -23 25 1
31 13 3 17 11 14 24 -6 21 21 27 33 8 5 -8 9 -7 14 1 5 8 15 10 26 6 13 -5 14
-10 6 -18 -9 -9 -6 -14 11 -23 29 -14 66 2 59 27 -5 20 22 26 34 7 5 -8 9 -7
14 1 11 18 41 4 34 -15 -4 -10 0 -15 11 -15 10 0 15 -6 13 -17 -2 -10 -9 -17
-15 -16 -7 2 -11 -10 -11 -27 1 -17 7 -30 14 -30 7 0 15 -6 18 -12 5 -11 7
-11 12 0 10 21 37 14 31 -8 -3 -13 0 -20 9 -20 8 0 17 -7 20 -15 9 -22 53 13
46 37 -5 19 16 25 33 10 6 -5 20 -3 33 3 13 7 19 15 14 19 -6 3 -8 16 -4 28 3
14 1 19 -6 14 -19 -11 -26 16 -8 30 10 7 15 18 11 23 -10 17 26 26 37 10 7
-11 11 -11 15 -1 8 20 36 15 31 -6 -7 -24 30 -41 57 -27 12 6 19 18 17 27 -4
21 18 24 36 6 9 -9 12 -9 12 0 0 7 6 12 13 12 19 0 20 57 1 64 -19 7 -18 26 1
26 10 0 15 10 15 32 0 17 -3 28 -7 25 -3 -4 -12 -2 -20 4 -10 9 -17 8 -28 -1
-12 -10 -16 -9 -21 3 -3 9 -3 20 0 25 3 6 -4 12 -16 15 -18 5 -19 8 -9 21 8 9
17 14 21 11 5 -3 6 3 3 14 -6 22 16 39 27 21 6 -9 12 -9 28 1 23 14 25 55 3
68 -7 5 -10 14 -7 20 4 6 11 9 16 6 5 -3 11 -1 14 4 4 5 2 13 -4 16 -8 5 -7
11 1 21 9 11 7 14 -9 14 -11 0 -23 6 -26 13 -5 9 -7 9 -12 0 -9 -21 -36 -15
-32 7 2 10 -1 19 -6 19 -5 -1 -12 5 -17 12 -12 21 -58 -8 -52 -32 6 -22 -21
-27 -31 -6 -5 9 -7 9 -12 0 -9 -20 -34 -15 -34 6 0 10 -7 21 -15 25 -22 8 -18
25 7 35 13 5 17 10 10 15 -6 4 -9 13 -6 21 8 19 -35 42 -46 25 -11 -18 -32 -2
-25 20 4 12 -1 19 -16 23 -23 6 -17 27 7 27 11 0 13 6 9 19 -7 22 14 40 25 21
5 -8 13 -9 21 -4 8 5 19 9 24 9 15 0 5 49 -11 58 -21 12 -17 27 6 27 17 0 19
3 10 19 -13 25 4 38 26 20 13 -10 17 -10 24 0 11 19 33 2 27 -21 -4 -14 -1
-18 8 -14 7 2 16 -2 19 -10 5 -14 8 -14 22 0 8 9 20 14 25 10 6 -3 7 5 3 20
-5 19 -2 26 9 26 8 0 17 -5 19 -11 2 -7 13 -5 31 4 18 9 24 18 17 22 -8 5 -8
11 1 21 9 11 8 14 -4 14 -24 0 -32 22 -14 35 10 7 17 21 17 31 0 22 -36 49
-45 34 -12 -20 -36 -11 -33 12 2 13 -2 22 -9 21 -20 -4 -25 28 -4 34 13 3 17
11 14 24 -6 20 20 28 32 9 3 -5 14 -2 25 8 24 20 27 62 5 62 -8 0 -15 7 -15
15 0 8 7 15 16 15 10 0 14 6 11 14 -3 8 1 20 8 26 12 10 16 9 21 -4 6 -16 8
-16 25 0 17 16 19 16 25 0 4 -9 4 -20 0 -23 -3 -3 4 -11 17 -17 26 -14 68 1
60 21 -9 23 8 35 27 18 16 -15 18 -15 24 0 8 21 26 10 26 -16 0 -11 7 -19 16
-19 11 0 14 -5 10 -16 -3 -9 -6 -18 -6 -20 0 -3 -4 -2 -10 1 -6 4 -10 -7 -10
-24 0 -21 5 -31 15 -31 8 0 15 -5 15 -12 0 -9 3 -9 12 0 19 19 41 15 35 -7 -6
-26 30 -42 60 -26 17 9 20 14 11 23 -17 17 18 28 37 12 10 -9 15 -9 15 -1 0 6
6 11 13 11 8 0 14 12 15 29 0 21 -5 30 -20 34 -22 6 -16 27 9 27 9 0 13 6 10
14 -3 8 1 20 8 26 12 10 16 9 21 -4 6 -16 8 -16 24 -1 19 17 34 7 25 -17 -8
-20 35 -36 62 -22 13 6 20 14 17 17 -4 3 -4 14 0 23 5 13 9 14 21 4 12 -10 18
-10 30 0 12 10 16 9 21 -3 3 -9 3 -20 0 -25 -3 -6 3 -12 14 -15 26 -7 26 -27
0 -27 -17 0 -19 -3 -10 -19 7 -14 7 -22 -1 -27 -7 -4 -2 -11 13 -19 14 -7 27
-8 35 -3 16 13 36 0 29 -18 -3 -8 1 -14 9 -14 8 0 15 -9 15 -20 0 -11 -6 -19
-12 -17 -7 1 -12 -6 -10 -15 3 -21 -15 -33 -31 -20 -17 13 -52 -9 -52 -33 0
-11 8 -23 18 -27 9 -4 17 -12 17 -18 0 -6 -8 -14 -17 -18 -10 -4 -18 -16 -18
-27 0 -24 35 -46 52 -33 17 13 35 0 29 -20 -4 -11 3 -21 19 -29 14 -6 25 -7
25 -2 0 5 7 9 15 9 9 0 15 9 15 25 0 28 9 31 29 13 11 -10 14 -10 18 0 8 20
35 14 31 -8 -2 -10 6 -26 17 -34 20 -16 20 -16 0 -21 -15 -5 -20 -14 -19 -33
1 -15 7 -26 13 -24 6 1 14 -4 17 -13 5 -13 8 -13 21 0 18 18 36 10 29 -13 -4
-11 3 -21 19 -29 14 -6 25 -7 25 -2 0 5 7 9 16 9 11 0 15 6 11 19 -6 23 21 38
29 16 5 -13 9 -13 27 0 28 20 32 61 5 68 -22 6 -16 27 8 27 11 0 13 6 9 19 -7
23 11 37 29 22 9 -7 16 -7 23 0 15 15 35 1 29 -19 -4 -11 3 -21 19 -29 14 -6
25 -7 25 -2 0 5 7 9 16 9 9 0 14 6 11 13 -3 8 -1 20 3 27 7 12 11 11 25 0 13
-11 18 -11 24 -1 5 7 12 12 16 12 5 -1 9 10 11 24 2 15 -2 25 -11 25 -20 0
-26 28 -7 34 26 9 24 50 -3 63 -16 7 -27 7 -33 1 -15 -15 -31 -1 -25 22 4 14
1 20 -8 18 -7 -2 -15 5 -17 15 -2 11 3 17 13 17 10 0 15 5 12 13 -9 23 8 40
22 24 9 -12 17 -12 35 -4 29 14 32 63 3 71 -21 5 -14 26 9 26 10 0 13 6 9 19
-7 24 21 36 30 13 6 -16 7 -16 16 0 13 23 42 12 34 -13 -4 -13 -1 -19 8 -19 9
0 18 -6 21 -12 5 -11 7 -11 12 0 3 6 13 12 21 12 9 0 13 6 10 13 -3 8 -2 19 2
26 6 10 12 9 24 -3 13 -14 17 -14 27 -1 16 19 33 9 25 -15 -4 -12 1 -19 16
-23 22 -6 18 -27 -5 -27 -7 0 -13 -12 -13 -30 0 -16 4 -27 8 -25 3 3 12 -2 19
-10 9 -11 16 -12 26 -4 17 14 35 3 27 -16 -3 -9 1 -15 10 -15 8 0 18 -6 21
-12 5 -10 7 -10 12 0 3 6 15 12 26 12 17 0 18 2 8 15 -16 20 -4 32 18 19 12
-7 23 -7 37 0 25 14 27 59 2 64 -23 5 -22 23 2 29 13 3 17 11 14 24 -6 21 21
27 33 8 5 -8 10 -6 16 5 13 24 28 19 28 -9 0 -16 6 -25 15 -25 8 0 15 -4 15
-9 0 -5 11 -4 25 2 16 8 23 18 19 29 -7 23 11 31 30 12 15 -14 17 -14 22 0 3
9 11 16 18 16 6 0 11 11 11 25 0 14 -5 25 -12 25 -21 0 -25 20 -6 28 25 10 23
54 -2 68 -12 7 -25 7 -32 2 -16 -13 -34 -1 -26 17 3 9 -1 15 -11 15 -21 0 -21
29 0 37 8 3 13 12 10 19 -7 17 11 28 27 16 18 -13 52 9 53 35 0 13 -5 23 -12
23 -20 0 -25 30 -6 38 27 11 25 45 -5 59 -20 10 -29 10 -34 2 -10 -17 -31 0
-25 19 4 11 -3 21 -19 29 -14 6 -25 7 -25 2 0 -5 -7 -9 -16 -9 -11 0 -13 -6
-9 -19 7 -25 -11 -37 -31 -20 -13 10 -17 10 -24 0 -11 -19 -32 -3 -25 19 4 12
-1 19 -16 23 -22 6 -18 27 6 27 9 0 13 9 11 25 -2 14 -6 24 -9 23 -3 -2 -13 6
-21 17 -9 11 -16 14 -16 8 0 -7 -9 -13 -21 -13 -16 0 -19 4 -14 20 5 14 2 20
-9 20 -9 0 -16 7 -16 15 0 8 7 15 16 15 10 0 14 7 12 23 -2 12 2 21 7 20 6 -1
15 -2 20 -3 6 -1 20 1 32 5 27 9 27 46 1 57 -19 8 -14 39 5 35 7 -1 11 8 9 21
-3 24 23 32 31 10 3 -10 7 -10 20 0 21 18 36 7 30 -21 -3 -12 -2 -19 2 -15 5
4 15 3 22 -4 11 -9 16 -9 22 1 5 7 12 12 17 12 5 0 9 6 9 13 0 22 13 30 27 19
20 -15 53 8 52 37 0 14 -5 24 -11 23 -19 -4 -24 27 -5 35 20 8 25 52 5 52 -8
0 -16 7 -19 15 -6 14 -8 13 -19 -1 -15 -22 -38 -9 -30 17 4 13 2 19 -9 19 -9
0 -16 7 -16 15 0 8 7 15 16 15 10 0 13 6 9 19 -8 25 21 36 34 13 6 -9 11 -12
11 -5 0 6 7 13 17 15 23 4 24 55 1 61 -12 4 -16 11 -12 22 4 9 12 14 20 11 9
-3 12 4 11 22 -2 29 -35 55 -51 40 -19 -16 -38 -9 -31 12 4 14 2 20 -8 20 -9
0 -17 5 -19 11 -3 8 -10 8 -26 -2 -12 -8 -20 -20 -17 -27 6 -17 -25 -28 -35
-12 -5 8 -9 9 -14 1 -13 -20 -39 -13 -33 9 3 13 0 20 -8 20 -20 0 -30 21 -14
30 7 5 16 7 20 4 5 -2 7 8 6 23 -2 32 -35 55 -55 40 -14 -11 -27 -3 -27 19 0
7 -4 13 -9 13 -5 0 -12 5 -17 12 -6 10 -11 10 -22 1 -7 -7 -17 -8 -22 -4 -4 4
-5 -3 -2 -15 6 -25 -9 -41 -25 -25 -18 18 -57 -9 -53 -38 2 -14 7 -24 13 -23
6 1 13 -5 16 -13 4 -11 -1 -18 -14 -21 -15 -4 -19 -11 -15 -24 7 -21 -19 -27
-31 -8 -5 8 -9 7 -14 -1 -11 -18 -41 -4 -34 15 4 9 1 15 -9 15 -8 0 -18 6 -21
13 -5 10 -7 10 -12 0 -3 -7 -13 -13 -21 -13 -10 0 -13 -6 -9 -15 7 -19 -23
-33 -34 -15 -5 8 -9 9 -14 1 -12 -19 -38 -13 -31 8 4 13 0 20 -15 24 -13 3
-18 10 -14 21 3 8 10 14 16 13 6 -1 11 9 13 23 4 29 -35 56 -53 38 -16 -16
-35 1 -21 18 9 11 8 14 -4 14 -25 0 -32 22 -13 36 10 7 15 18 11 23 -3 6 2 14
11 18 10 4 19 2 21 -4 3 -8 11 -8 27 0 29 14 32 63 3 71 -21 5 -14 26 8 26 21
0 14 42 -8 59 -14 10 -22 10 -30 2 -18 -18 -27 -13 -27 14 0 15 -6 25 -14 25
-8 0 -17 6 -20 13 -5 10 -7 10 -12 0 -3 -7 -12 -13 -20 -13 -7 0 -11 -6 -9
-12 3 -7 0 -20 -5 -28 -9 -13 -11 -13 -20 0 -8 12 -13 13 -29 3 -22 -14 -34
-3 -25 21 4 11 1 16 -10 16 -9 0 -16 7 -16 15 0 8 6 15 13 15 24 0 16 55 -9
67 -16 8 -24 8 -27 0 -2 -6 -11 -8 -20 -4 -10 4 -14 12 -11 22 4 10 0 15 -10
15 -21 0 -21 26 0 34 9 4 14 13 10 21 -8 21 23 32 36 14 7 -11 11 -11 15 -1 2
6 11 12 18 12 9 0 13 9 10 28 -1 15 -8 26 -14 25 -6 -2 -11 6 -11 17 0 11 7
20 15 20 9 0 12 6 9 15 -4 9 1 18 12 22 11 4 19 2 22 -6 3 -9 7 -9 18 -1 16
14 35 5 28 -13 -2 -7 5 -18 16 -25 26 -16 63 4 54 30 -6 19 20 26 30 9 4 -5
16 -4 29 2 30 14 33 63 4 71 -20 5 -15 26 7 26 7 0 13 12 13 30 0 17 -3 28 -5
25 -3 -3 -13 2 -22 10 -16 14 -18 14 -24 -1 -5 -13 -9 -14 -21 -4 -7 6 -11 18
-8 26 3 8 -1 14 -11 14 -9 0 -16 7 -16 15 0 8 7 15 16 15 11 0 15 6 11 19 -6
23 15 34 33 18 10 -9 14 -9 17 1 3 6 10 12 16 12 7 0 13 11 13 25 1 15 -3 25
-12 25 -8 0 -14 9 -14 20 0 14 5 18 16 13 13 -5 15 -2 10 15 -8 24 9 38 28 23
9 -7 16 -7 23 0 17 17 32 2 26 -24 -3 -12 -2 -19 2 -15 5 4 14 3 21 -3 17 -14
55 6 48 25 -7 19 14 30 30 17 9 -7 16 -7 23 0 15 15 34 2 31 -19 -2 -9 2 -16
9 -15 20 4 25 -28 4 -34 -21 -5 -25 -53 -4 -53 6 0 13 -6 16 -12 3 -10 8 -10
21 1 15 12 19 12 26 1 4 -7 6 -19 4 -25 -6 -15 28 -25 57 -18 11 3 18 11 15
18 -2 6 0 18 4 25 7 11 11 11 26 -1 13 -11 18 -11 21 -1 3 6 10 12 17 12 19 0
14 44 -6 52 -19 8 -14 39 5 35 7 -1 11 8 9 21 -3 23 21 32 33 12 5 -8 11 -7
20 0 20 16 34 4 28 -23 -3 -12 -2 -19 2 -15 5 4 14 3 21 -3 17 -14 55 6 48 25
-7 18 13 31 29 18 18 -13 52 9 53 36 0 12 -5 22 -12 22 -20 0 -25 30 -6 38 9
4 17 16 17 27 0 24 -35 46 -52 33 -18 -14 -35 1 -28 23 4 13 2 19 -9 19 -9 0
-16 7 -16 15 0 8 7 15 16 15 11 0 14 6 9 20 -5 16 -2 20 14 20 12 0 21 -6 21
-12 1 -8 6 -6 14 5 8 10 18 18 22 18 4 -1 8 10 9 24 0 14 -5 25 -12 25 -21 0
-25 20 -6 28 28 11 26 55 -3 69 -13 6 -24 7 -24 2 0 -5 -9 -9 -21 -9 -16 0
-19 4 -14 20 4 14 2 20 -8 20 -9 0 -17 5 -19 11 -3 8 -10 8 -26 -2 -12 -8 -20
-20 -17 -27 6 -17 -25 -28 -35 -12 -5 8 -9 9 -14 1 -12 -19 -39 -13 -33 8 3
13 -2 21 -16 25 -17 4 -18 7 -8 20 8 9 17 13 22 11 4 -3 7 7 6 22 -2 31 -35
55 -54 41 -16 -12 -34 -1 -27 16 3 7 -2 16 -10 19 -21 8 -21 37 0 37 10 0 14
5 10 15 -3 10 1 18 11 22 9 4 19 1 21 -5 6 -18 47 14 47 36 0 9 -9 25 -20 34
-20 18 -20 18 1 24 15 4 20 11 17 25 -6 20 20 28 32 9 4 -6 12 -4 22 6 12 12
18 13 24 3 4 -7 5 -18 2 -26 -3 -7 1 -13 10 -13 8 0 18 -6 21 -12 5 -10 7 -10
12 0 3 6 12 12 21 12 9 0 12 6 8 19 -8 25 21 36 34 13 6 -9 11 -12 11 -5 0 6
7 13 17 15 24 4 24 55 0 62 -20 5 -15 26 6 26 20 0 13 49 -9 64 -16 13 -21 12
-36 -1 -18 -16 -23 -10 -19 25 1 6 -5 12 -14 12 -10 0 -15 6 -13 18 2 9 10 16
17 14 8 -2 10 4 6 17 -7 22 10 37 28 23 18 -13 52 9 53 36 0 12 -5 22 -12 22
-20 0 -25 30 -6 38 20 8 25 52 5 52 -8 0 -16 7 -19 15 -6 14 -8 13 -19 -1 -14
-20 -38 -9 -31 14 9 27 -35 42 -58 21 -10 -10 -15 -22 -12 -28 10 -16 -13 -24
-30 -10 -13 10 -17 10 -24 0 -12 -20 -32 -3 -24 21 4 13 2 18 -4 14 -5 -3 -15
1 -23 10 -10 12 -9 16 7 20 13 4 19 13 19 30 -1 13 -5 24 -10 23 -4 0 -11 5
-15 11 -6 9 -13 9 -28 1 -25 -14 -40 3 -22 24 10 12 9 15 -8 15 -11 0 -23 6
-26 13 -5 10 -7 10 -12 0 -3 -7 -13 -13 -21 -13 -9 0 -13 -6 -10 -13 3 -8 1
-20 -4 -28 -7 -11 -11 -10 -23 6 -9 11 -16 15 -16 8 0 -6 -8 -14 -17 -17 -26
-8 -26 -53 0 -60 17 -4 18 -7 8 -20 -8 -9 -18 -13 -23 -10 -6 4 -8 -1 -4 -14
8 -24 -12 -41 -24 -21 -7 10 -11 10 -24 0 -19 -16 -36 -7 -29 18 3 12 -2 20
-16 24 -34 9 -62 -3 -56 -23 8 -24 -12 -35 -31 -19 -13 10 -17 10 -24 0 -12
-20 -32 -3 -24 21 4 13 2 18 -4 14 -5 -3 -15 1 -23 10 -10 13 -9 16 9 20 14 4
20 13 18 27 -1 12 -6 23 -10 24 -5 1 -12 7 -17 14 -6 10 -11 10 -21 1 -18 -14
-39 3 -31 24 3 8 -1 14 -11 14 -9 0 -16 7 -16 15 0 8 7 15 16 15 10 0 14 7 12
23 -3 22 2 24 35 12 10 -4 17 -3 17 4 0 6 6 11 13 11 6 0 13 11 13 25 1 15 -3
25 -12 25 -17 0 -19 29 -1 35 6 3 13 15 13 28 2 26 -38 51 -54 35 -16 -16 -31
0 -25 25 3 12 2 19 -2 15 -5 -4 -14 -3 -21 3 -16 13 -56 -10 -50 -28 7 -17
-12 -27 -28 -14 -9 7 -16 7 -23 0 -16 -16 -35 -1 -28 22 5 14 3 17 -9 13 -11
-4 -16 0 -16 15 0 12 6 21 13 21 6 0 13 11 13 25 1 15 -4 25 -11 25 -7 0 -15
6 -18 13 -3 9 -7 9 -20 -1 -21 -18 -37 -8 -30 18 4 14 0 20 -11 20 -9 0 -16 4
-16 9 0 5 -11 4 -25 -2 -16 -8 -23 -18 -19 -29 6 -20 -12 -33 -29 -20 -18 13
-52 -9 -53 -35 0 -13 5 -23 13 -23 7 0 13 -4 13 -10 0 -5 0 -13 0 -17 0 -5 -6
-8 -12 -8 -8 0 -12 -10 -10 -23 4 -24 -22 -32 -32 -9 -5 10 -7 10 -12 0 -9
-20 -34 -15 -34 7 0 24 -39 48 -50 30 -4 -6 -11 -12 -16 -12 -5 1 -8 -5 -6
-13 3 -18 -16 -29 -31 -17 -19 14 -52 -9 -52 -38 0 -15 6 -25 14 -25 22 0 25
-24 4 -33 -10 -4 -18 -16 -18 -27 0 -25 34 -45 57 -33 19 9 31 -3 22 -25 -3
-9 3 -16 16 -20 24 -6 19 -27 -6 -27 -11 0 -13 -6 -9 -19 8 -26 -15 -39 -27
-16 -8 14 -12 15 -19 4 -4 -8 -14 -14 -20 -14 -20 0 -17 -53 3 -58 24 -7 23
-23 -1 -30 -14 -3 -18 -11 -14 -26 6 -23 -6 -28 -25 -9 -10 10 -14 10 -21 0
-12 -20 -40 -4 -33 20 3 15 1 19 -6 14 -7 -4 -15 -1 -18 8 -5 14 -8 14 -29 0
-13 -9 -22 -21 -19 -29 7 -18 -16 -31 -26 -14 -7 10 -11 10 -25 -1 -14 -11
-18 -12 -25 0 -4 7 -6 19 -3 27 3 7 -2 13 -11 13 -9 0 -16 7 -16 15 0 8 6 15
13 15 8 0 14 12 14 29 0 32 -30 49 -54 29 -9 -7 -14 -6 -19 6 -4 9 -4 20 0 23
3 3 -4 11 -17 17 -27 14 -70 -2 -62 -22 8 -21 -5 -35 -20 -22 -10 8 -19 8 -34
0 -24 -13 -28 -55 -6 -64 8 -3 15 -10 15 -16 0 -5 -7 -10 -15 -10 -9 0 -15 -9
-15 -25 0 -27 -9 -32 -28 -13 -10 10 -15 10 -21 -1 -11 -18 -31 -5 -31 20 0
10 -7 19 -15 19 -8 0 -15 5 -15 12 0 6 -7 4 -18 -5 -10 -10 -22 -14 -26 -10
-4 4 -4 0 -1 -9 10 -26 -4 -42 -23 -26 -12 10 -16 10 -19 1 -8 -23 -33 -14
-33 12 0 16 -6 25 -15 25 -8 0 -15 7 -15 15 0 8 9 15 21 15 14 0 18 4 12 13
-4 6 -6 20 -4 31 1 10 -2 15 -8 12 -5 -4 -14 2 -20 11 -9 17 -10 17 -16 1 -9
-22 -38 -11 -32 13 3 11 -2 19 -17 23 -21 6 -21 6 -1 22 11 8 20 20 21 27 2
26 5 27 23 17 14 -7 22 -7 26 0 4 6 11 8 16 5 16 -11 9 47 -8 60 -16 12 -9 40
8 30 5 -4 9 8 9 24 0 20 -5 31 -14 31 -8 0 -17 6 -20 13 -5 10 -7 10 -12 0
-10 -22 -37 -15 -31 7 3 13 0 20 -8 20 -7 0 -15 5 -17 12 -3 7 -9 8 -19 2 -8
-5 -18 -9 -24 -9 -5 0 -9 -10 -7 -23 4 -24 -22 -32 -32 -9 -5 10 -7 10 -12 0
-10 -21 -37 -16 -31 6 3 13 -1 21 -14 24 -26 7 -24 26 3 36 13 5 17 10 10 15
-6 4 -9 12 -6 19 6 18 -36 43 -46 27 -11 -18 -33 -1 -27 21 3 11 2 17 -3 14
-4 -3 -13 2 -21 11 -10 13 -9 16 10 21 15 4 20 11 16 23 -7 23 21 34 30 12 5
-14 7 -14 15 -2 5 8 14 15 20 15 5 0 10 3 10 8 0 4 0 16 0 27 0 11 -7 20 -15
20 -8 0 -15 7 -15 15 0 13 12 19 32 16 4 0 5 6 2 14 -9 22 5 38 22 24 11 -9
17 -9 29 1 12 10 16 9 21 -3 3 -9 4 -20 1 -24 -3 -5 6 -13 19 -20 13 -6 24 -7
24 -2 0 5 9 9 19 9 14 0 18 5 14 19 -5 22 16 39 26 22 6 -9 15 -8 35 3 17 9
23 17 16 21 -8 5 -8 10 0 20 8 9 5 14 -11 18 -22 6 -21 34 0 29 7 -1 11 6 9
15 -1 10 1 24 5 31 6 8 2 12 -12 12 -12 0 -21 5 -21 12 0 9 -3 9 -12 0 -19
-19 -41 -15 -35 7 3 13 -1 21 -14 24 -21 6 -16 37 6 37 8 0 11 8 8 20 -6 23
15 28 35 8 9 -9 12 -9 12 0 0 7 6 12 13 12 9 0 14 12 15 30 0 20 -4 30 -14 30
-8 0 -14 7 -14 15 0 8 6 15 13 15 9 0 14 12 15 31 0 17 -2 28 -5 25 -3 -3 -12
-1 -20 5 -10 9 -17 8 -28 -1 -12 -10 -16 -9 -21 4 -4 9 -4 20 0 23 3 3 -4 11
-17 17 -32 17 -65 -1 -59 -31 5 -25 -7 -30 -26 -11 -8 8 -15 8 -26 -1 -22 -18
-39 -5 -26 20 9 16 7 19 -10 19 -11 0 -20 7 -20 15 0 8 7 15 16 15 10 0 14 6
11 14 -3 7 0 19 6 25 9 9 6 13 -11 17 -12 4 -22 11 -22 17 0 7 -4 7 -12 -1
-19 -19 -41 -15 -36 6 7 24 -30 41 -57 27 -12 -6 -19 -18 -17 -27 4 -21 -18
-24 -36 -6 -9 9 -12 9 -12 0 0 -7 -6 -12 -13 -12 -9 0 -14 -12 -15 -30 0 -20
4 -30 14 -30 8 0 14 -7 14 -15 0 -8 -7 -15 -16 -15 -9 0 -14 -6 -11 -13 3 -8
1 -20 -4 -28 -8 -12 -12 -11 -24 5 -13 17 -15 17 -21 3 -8 -21 -37 -9 -31 12
6 24 -32 40 -61 25 -15 -8 -20 -14 -12 -19 8 -5 8 -10 -1 -21 -9 -11 -15 -11
-25 -3 -11 9 -18 8 -29 -1 -12 -10 -16 -9 -21 3 -3 9 -3 20 0 25 3 6 -3 12
-14 15 -23 6 -27 27 -6 27 7 0 16 12 19 26 3 20 0 28 -14 31 -11 3 -19 10 -19
16 0 7 -4 7 -12 -1 -20 -20 -40 -15 -33 8 5 14 2 20 -10 20 -10 0 -15 6 -13
18 2 9 10 16 17 14 8 -2 10 4 6 17 -7 22 10 37 28 23 18 -13 52 9 53 35 0 14
-7 25 -18 29 -23 7 -23 24 0 31 19 5 24 58 4 58 -5 0 -14 3 -18 7 -4 4 -13 3
-20 -3 -15 -12 -36 -3 -32 15 2 6 -1 13 -7 15 -5 2 -15 11 -22 20 -8 10 -12
12 -13 4 0 -7 -7 -13 -15 -13 -8 0 -15 -9 -15 -19 0 -26 -20 -37 -32 -20 -7
11 -11 11 -15 2 -8 -21 -33 -15 -33 8 0 12 -8 28 -17 35 -17 13 -17 14 2 19
15 5 20 14 19 33 0 15 -6 27 -13 27 -6 0 -16 6 -20 14 -7 11 -11 10 -19 -4
-11 -22 -35 -10 -28 13 4 11 -3 21 -19 29 -14 6 -25 7 -25 2z"/>
</g>
</svg>
